<svg width="160" height="162" viewBox="0 0 160 162" fill="none" xmlns="http://www.w3.org/2000/svg">
<g clip-path="url(#clip0_503_6996)">
<path d="M160 0H0V162H160V0Z" fill="#00C77F"/>
<path d="M77.96 37.04C77.96 40.12 77.2 42.4 75.68 43.88C74.16 45.32 71.7 46.04 68.3 46.04H31.7C28.3 46.04 25.84 45.32 24.32 43.88C22.8 42.4 22.04 40.12 22.04 37.04V25.4C22.04 22.32 22.8 20.06 24.32 18.62C25.84 17.14 28.3 16.4 31.7 16.4H68.3C71.7 16.4 74.16 17.14 75.68 18.62C77.2 20.06 77.96 22.32 77.96 25.4V37.04ZM77.96 61.76H61.16V69.68H38.84V61.76H22.04V47.78H77.96V61.76ZM58.94 32.42V30.02H41.06V32.42H58.94ZM137.96 69.68H118.64V16.4H137.96V69.68ZM116.66 69.68H82.04V36.08H97.46V31.52H82.04V16.4H116.66V50H101.24V54.56H116.66V69.68ZM77.96 117.1H58.04V87.4H77.96V117.1ZM77.96 140.68H58.34V132.4H22.04V118.54H77.96V140.68ZM56.42 117.28C54.78 117.28 53.14 117.18 51.5 116.98C49.9 116.78 48.34 116.46 46.82 116.02C45.34 115.54 43.94 114.96 42.62 114.28C41.34 113.56 40.2 112.72 39.2 111.76C38.2 112.72 37.04 113.56 35.72 114.28C34.44 114.96 33.06 115.54 31.58 116.02C30.1 116.46 28.54 116.78 26.9 116.98C25.3 117.18 23.68 117.28 22.04 117.28V102.82C24.16 102.54 25.74 101.8 26.78 100.6C27.86 99.36 28.4 97.38 28.4 94.66V87.4H50.06V94.66C50.06 97.38 50.58 99.36 51.62 100.6C52.7 101.8 54.3 102.54 56.42 102.82V117.28ZM136.76 132.88C136.76 134.4 136.6 135.66 136.28 136.66C136 137.66 135.5 138.46 134.78 139.06C134.06 139.66 133.12 140.08 131.96 140.32C130.8 140.56 129.38 140.68 127.7 140.68H90.8C89.12 140.68 87.7 140.56 86.54 140.32C85.38 140.08 84.44 139.66 83.72 139.06C83 138.46 82.48 137.66 82.16 136.66C81.88 135.66 81.74 134.4 81.74 132.88V124.6C81.74 123.08 81.88 121.82 82.16 120.82C82.48 119.82 83 119.02 83.72 118.42C84.44 117.82 85.38 117.4 86.54 117.16C87.7 116.92 89.12 116.8 90.8 116.8H127.7C129.38 116.8 130.8 116.92 131.96 117.16C133.12 117.4 134.06 117.82 134.78 118.42C135.5 119.02 136 119.82 136.28 120.82C136.6 121.82 136.76 123.08 136.76 124.6V132.88ZM115.16 115.36H82.04V87.4H115.16V100.42H101.96V102.28H115.16V115.36ZM136.46 115.36H116.84V87.4H136.46V93.16H140.6V110.08H136.46V115.36ZM118.34 129.46V128.02H100.16V129.46H118.34Z" fill="white"/>
</g>
<defs>
<clipPath id="clip0_503_6996">
<rect width="160" height="162" fill="white"/>
</clipPath>
</defs>
</svg>
